<svg xmlns="http://www.w3.org/2000/svg" id="Layer_2" data-name="Layer 2" viewBox="0 0 78.92 78.42"><defs><style>.cls-1{fill:#fff}</style></defs><g id="Layer_1-2" data-name="Layer 1"><g><path d="M78.92,78.42h-45.41C18.6,78.42,0,58.15,0,43.43V0h43.43c16.81,0,35.49,19.91,35.49,36.48v41.94ZM35.12,13.53c-31.26,3.97-27.83,54.32,6.32,51.98,34.16-2.34,30.94-56.71-6.32-51.98Z"/><path d="M35.12,13.53c37.25-4.73,40.48,49.64,6.32,51.98C7.29,67.85,3.86,17.5,35.12,13.53ZM35.62,19.98c-21.56,2.92-20.85,37.27,1.86,39.07,28.75,2.28,28.84-43.24-1.86-39.07Z" class="cls-1"/><path d="M35.62,19.98c30.7-4.16,30.61,41.35,1.86,39.07-22.72-1.8-23.42-36.15-1.86-39.07ZM37.09,26.43c-18.35,2.86-10.81,32.25,7.2,25.06,14.22-5.67,8.31-27.49-7.2-25.06Z"/><path d="M37.09,26.43c15.51-2.42,21.42,19.39,7.2,25.06-18.01,7.18-25.54-22.2-7.2-25.06ZM37.59,32.87c-6.84,1.39-6.08,12.58.86,13.03,11.06.72,9.2-15.08-.86-13.03Z" class="cls-1"/><path d="M37.59,32.87c10.06-2.04,11.92,13.75.86,13.03-6.94-.45-7.71-11.64-.86-13.03Z"/></g></g></svg>