<?xml version="1.0" encoding="UTF-8"?>
<svg id="Layer_2" data-name="Layer 2" xmlns="http://www.w3.org/2000/svg" viewBox="0 0 132.61 133.4">
  <g id="Layer_1-2" data-name="Layer 1">
    <g id="Uq7YN7.tif">
      <path d="M70.65,0l-.83,49.61L86.78,3.88c1.32-.29,2.51.3,3.73.65,2.98.85,6.1,1.85,5.01,5.54l-19.73,41.54c1.02,1.07,5.16-3.58,5.99-4.45,8.87-9.25,16.95-20.43,26.29-29.43,2.37-2.86,9.82,4.29,8.06,7.03l-35.37,32.82,44.16-20.75c1.68.31,5.63,7.82,3.65,9.32l-44.81,17.4,47.32-2.73c2.55.45,1.11,8.62,1.45,10.7l-48.77-1.99c.26,1.5,1.81,1.94,3,2.46,12.2,5.4,26.82,8.82,39.64,14.15.95.39,2.13.32,3.15.3.61.59-2.46,10.29-5.3,9.79l-43.47-20.74,35.36,32.86c2.44,2.04-5.39,8.09-5.97,8l-35.37-35.87,21.65,44.29c-7.88,7-9.12,5.11-12.45-3.24-4.52-11.32-7.52-23.49-12.03-34.78-.65-1.64-.73-3.92-3.13-3.29l3.03,47.24c-.65,4.38-7.84,2.31-11.01,1.51l2.98-48.75-2.7,2.76-14.41,41.8c-1.52,2.2-10.79-.25-9.61-4.03l19.75-43.53-32.41,35.9c-2.97.46-6.13-4.83-8.37-6.54l35.8-34.33-43.47,20.77c-2.79.25-4.32-7.06-4.38-9.2l45.86-17.54-47.28,1.98-2.34-1.63c-.12-1.84-1.02-8.65,1.31-9.06l43.97,3.65,4.32-1.41L3.35,45.18c.81-1.84,2.55-8.75,5.04-8.37l44.49,20.76L16.1,23.19l4.67-5.39,4.24-.58,31.85,35.38L37.1,9.09c-1.17-3.26,8.57-6.68,9.61-3.55l17.11,45.08-1.98-48.26,1.63-2.35h7.18Z"/>
    </g>
  </g>
</svg>