<svg xmlns="http://www.w3.org/2000/svg" id="Layer_2" data-name="Layer 2" viewBox="0 0 78.77 78.81"><g id="Layer_1-2" data-name="Layer 1"><g><path d="M42.49,71.99c11.82-1.02,22.55-8.93,27.04-19.87,8.37-20.42-4.78-42.78-26.58-45.38-.68-.46-.62-4.98-.47-6,.11-.77-.3-.76.75-.75,6.41.07,15.9,4.43,20.83,8.47,27.55,22.56,14.02,66.47-20.85,70.33-1.34-.24-.5-5.52-.72-6.81Z"/><path d="M36.03.02v6.95c-38.9,4.51-38.74,60.1-.02,65.04l.03,6.43c-12.48-.19-24.93-8.81-30.86-19.52C-8.94,33.42,7.31,2.8,36.03.02Z"/><path d="M49.26,30.47c11.3,12.34-7.33,30.57-19.38,18.14-12.39-12.78,7.49-31.12,19.38-18.14Z"/><path d="M65.32,36.25l-6.48-.22c-2.69-12.75-16.08-20.07-28.1-14.26-5.97,2.89-8.94,8.21-11.07,14.24-1.17.32-6.13.71-6.34-.48,2.8-16.38,19.22-26.55,35.11-20.86,8.88,3.18,16.27,12.04,16.88,21.58Z"/><path d="M20.15,42.71c4.36,21.6,33.63,21.45,38.69.23l6.47-.23c-4.48,30.4-47.28,30.31-52.12,0h6.95Z"/></g></g></svg>